<?xml version="1.0" encoding="UTF-8"?>
<svg id="Capa_1" data-name="Capa 1" xmlns="http://www.w3.org/2000/svg" viewBox="0 0 7685 3093">
  <defs>
    <style>
      .cls-1 {
        fill: #fff;
      }

      .cls-2 {
        fill: #1d70b7;
      }
    </style>
  </defs>
  <g>
    <path class="cls-1" d="M715.25,766.84h-324.56v-220.12c262.46,0,355.6-56.45,426.15-248.37h208.84v1975.57h-310.43V766.84Z"/>
    <path class="cls-1" d="M1386.9,1805.43V766.84c0-316.08,166.52-496.71,471.32-496.71s471.32,180.62,471.32,496.71v1038.59c0,316.08-166.52,496.71-471.32,496.71s-471.32-180.62-471.32-496.71ZM2019.08,1825.19V747.1c0-141.13-62.1-194.75-160.87-194.75s-160.87,53.62-160.87,194.75v1078.09c0,141.11,62.08,194.73,160.87,194.73s160.87-53.62,160.87-194.73Z"/>
  </g>
  <g>
    <path class="cls-2" d="M3569.62,958.49c-19.5,51.66-41.72,101.4-66.68,149.22-24.99,47.85-51.87,97.15-80.65,147.95-38.1,65.21-78.96,127.86-122.56,187.96-43.61,60.13-89.52,118.96-137.78,176.52-48.26,56.74-97.79,111.76-148.58,165.1-50.8,53.35-105.42,103.3-163.83,149.86-55.88,44.89-114.94,85.09-177.16,120.65-62.23,35.55-128.07,61.79-197.49,78.74l-171.44,396.23c-2.55,5.08-6.15,8.27-10.8,9.53-4.67,1.27-9.32,1.05-13.97-.64-4.67-1.71-8.25-4.87-10.8-9.53-2.53-4.65-2.96-9.51-1.26-14.59,6.75-19.5,13.75-38.55,20.95-57.15,7.18-18.64,14.61-37.69,22.22-57.15,16.93-44.03,34.93-87.21,53.98-129.53,19.05-42.36,38.74-84.68,59.05-127-25.39,3.38-50.8,3.17-76.2-.64-25.39-3.81-48.25-13.76-68.57-29.83-24.56-18.62-40.44-40.84-47.63-66.68-7.2-25.82-4.87-52.71,6.99-80.65,2.53-5.91,6.77-8.03,12.69-6.36,5.91,1.72,7.63,5.53,5.08,11.44-5.93,14.4-6.36,28.58-1.27,42.55,5.08,13.97,11.44,26.89,19.05,38.74,9.32,14.4,20.74,25.39,34.3,33.02,13.54,7.61,27.94,12.9,43.18,15.86,15.23,2.96,30.88,4.01,46.99,3.17,16.07-.84,31.75-2.53,46.99-5.06l22.86-45.73,228.6-529.57c30.47-70.26,60.96-140.33,91.43-210.18,30.49-69.85,57.98-141.18,82.54-213.99,11.85-34.71,22.24-69.42,31.13-104.14,8.89-34.71,16.3-69.85,22.22-105.42,2.53-15.23,4.86-31.52,6.99-48.89,2.1-17.35,2.72-34.48,1.89-51.43-.84-16.93-4.03-33.21-9.53-48.9-5.51-15.64-14.19-29.4-26.03-41.27-20.33-20.31-45.1-31.75-74.29-34.28-29.21-2.55-57.38-1.27-84.46,3.81-32.19,5.93-63.72,15.04-94.62,27.3-30.92,12.28-61.18,25.61-90.81,40-63.49,31.33-123.81,67.11-180.97,107.31-57.15,40.24-113.24,82.77-168.27,127.64-52.5,43.18-104.13,88.49-154.94,135.89-50.8,47.42-97.15,98.22-139.06,152.39-41.91,54.19-77.69,111.98-107.31,173.35-29.64,61.39-49.52,127.23-59.69,197.49-9.32,64.35-7.61,128.26,5.08,191.77,12.69,63.49,38.1,121.92,76.2,175.25,34.69,48.26,77.46,88.07,128.26,119.39,50.8,31.32,105.42,49.94,163.83,55.88,5.91.83,8.89,4,8.89,9.53s-2.98,8.25-8.89,8.25c-31.33,0-60.13-2.98-86.37-8.89-28.78-6.79-56.5-17.14-83.18-31.11-26.66-13.97-51.43-30.92-74.29-50.81-22.86-19.88-44.03-41.68-63.49-65.4-19.48-23.68-36-48.25-49.54-73.65-33-60.96-52.05-125.92-57.14-194.94-5.08-69,.41-136.53,16.5-202.57,16.93-71.95,43.37-139.25,79.37-201.91,35.98-62.65,77.89-121.49,125.73-176.54,47.83-55.02,99.48-106.87,154.94-155.56,55.45-48.68,111.53-94.62,168.27-137.8,60.1-45.72,121.92-88.45,185.41-128.26,63.51-39.79,130.81-73.22,201.93-100.34,25.41-9.3,53.54-17.78,84.46-25.39,30.9-7.63,61.37-10.8,91.43-9.53,30.04,1.26,57.98,8.04,83.82,20.31,25.82,12.28,46.35,33.66,61.6,64.15,15.24,30.47,22.01,63.08,20.33,97.79-1.71,34.73-5.51,68.16-11.44,100.32-6.79,38.96-15.23,77.27-25.39,114.94-10.16,37.67-21.6,75.14-34.3,112.38-26.25,77.07-55.47,152.41-87.62,226.06-32.19,73.65-64.35,147.76-96.51,222.24l-49.54,118.11,99.06-163.83c39.79-64.34,80.2-129.1,121.28-194.3,41.05-65.18,84.23-128.69,129.53-190.49,45.29-61.8,93.14-121.28,143.5-178.44,50.37-57.15,104.78-110.69,163.21-160.66,12.69-10.16,25.8-20.74,39.36-31.75,13.54-10.99,27.51-20.95,41.91-29.85,14.38-8.89,29.63-15.86,45.72-20.95,16.07-5.08,33.02-6.77,50.8-5.08,33.02,3.39,58.43,16.73,76.2,40,17.78,23.31,24.55,51.02,20.33,83.2-2.55,17.78-6.79,35.55-12.71,53.33-5.93,17.78-12.28,35.14-19.03,52.07ZM2957.49,1781.44c97.34-97.36,187.94-201.29,271.76-311.78,83.84-110.5,156.22-227.53,217.18-351.15,30.47-61.8,57.15-125.3,80.01-190.49,4.22-12.71,9.3-27.73,15.24-45.1,5.91-17.35,9.08-34.28,9.53-50.8.41-16.5-2.77-30.9-9.53-43.18-6.79-12.26-20.76-20.52-41.91-24.75-16.95-2.55-33.24-1.05-48.9,4.44-15.67,5.51-30.7,12.92-45.08,22.22-14.42,9.32-28.16,19.9-41.29,31.75-13.13,11.87-25.2,22.86-36.19,33.02-27.1,23.72-52.92,48.06-77.46,73.02-24.56,24.99-48.7,51.02-72.4,78.12-47.42,53.33-92.07,108.79-133.98,166.36-41.91,57.58-82.35,116.2-121.28,175.89-38.95,59.7-76.63,120.23-113.03,181.62-36.41,61.39-72.83,122.54-109.21,183.5-36.41,60.96-71.76,122.56-106.06,184.79-34.28,62.22-67.52,125.09-99.68,188.58,48.25-15.23,96.08-35.12,143.5-59.69,60.1-31.32,116.2-67.73,168.27-109.22,52.07-41.46,102.23-85.92,150.5-133.34v-3.81Z"/>
    <path class="cls-2" d="M3895.99,1783.97c5.91-3.38,11.63-2.74,17.14,1.91,5.49,4.67,6.13,9.96,1.91,15.86-9.34,12.71-19.69,24.13-31.13,34.3-11.42,10.16-23.06,20.33-34.92,30.49-23.72,21.17-47.42,41.06-71.12,59.69-22.03,16.95-45.72,34.5-71.12,52.71-25.39,18.21-51.64,31.54-78.74,40-11.87,3.39-23.93,4.67-36.19,3.81-12.28-.83-23.08-5.91-32.38-15.24-9.34-9.3-13.56-19.67-12.69-31.11.83-11.42,2.95-22.63,6.34-33.66,5.08-16.92,11.21-34.71,18.41-53.33,7.18-18.62,15.88-36.4,26.04-53.35l-34.3,19.05c-10.16,6.79-19.9,13.56-29.21,20.33-9.32,6.79-18.62,13.56-27.94,20.31-6.79,5.94-13.52,11.23-20.31,15.88-6.77,4.67-14.81,6.98-24.13,6.98-4.24,0-8.04-1.05-11.44-3.17-3.38-2.1-5.49-5.27-6.34-9.53-2.55-15.24-.84-30.26,5.08-45.08,5.93-14.81,12.69-28.58,20.31-41.27,9.34-16.07,19.91-31.76,31.75-46.99,11.85-15.24,24.98-28.78,39.38-40.65,9.3-7.61,20.33-14.8,33.02-21.58,12.69-6.77,24.55-5.08,35.55,5.08,6.77,6.79,12.71,15.67,17.78,26.66,5.08,11.02,8.46,22.44,10.16,34.3h3.81c4.24-1.69,8.27-.64,12.07,3.17,3.81,3.81,4.86,7.84,3.17,12.07-1.71,5.08-3.39,8.47-5.08,10.15,0,3.39-.43,5.94-1.26,7.63-4.25,11.01-9.53,21.39-15.88,31.11-6.36,9.75-12.06,19.69-17.14,29.85-5.94,11.01-11.02,22.01-15.24,33.02-4.25,11.01-8.47,22.44-12.69,34.28-1.71,5.08-3.39,10.39-5.08,15.88-1.71,5.51-2.98,10.8-3.81,15.88-.86,11.01,2.31,17.57,9.51,19.67,7.18,2.14,15.45,2.34,24.77.64,11.85-2.53,22.86-6.77,33.02-12.69,10.16-5.91,19.88-11.85,29.21-17.78,20.31-12.71,40-26.23,59.05-40.65,19.05-14.38,37.88-29.2,56.52-44.44,16.93-14.38,33.43-29.63,49.52-45.72,16.09-16.07,33.86-29.63,53.35-40.65l1.27-3.81ZM3554.36,1822.07c9.3-5.91,19.24-11.85,29.85-17.78,10.58-5.91,21.36-11.44,32.38-16.52-2.55-8.44-5.72-16.92-9.53-25.39-3.82-8.46-8.27-15.24-13.33-20.33-1.72,0-2.98.45-3.82,1.27-1.71,1.71-3.17,2.76-4.44,3.17-1.26.45-2.76,1.09-4.44,1.91-5.08,3.39-9.96,7.2-14.61,11.42-4.65,4.25-9.09,8.47-13.33,12.71-18.64,18.62-35.14,39.81-49.52,63.49-3.39,5.08-6.99,10.59-10.8,16.52-3.81,5.93-6.98,12.28-9.53,19.05,4.25-4.24,8.47-8.27,12.69-12.07,4.24-3.81,7.63-6.55,10.16-8.25,15.24-10.99,30.04-20.74,44.46-29.21h3.81Z"/>
    <path class="cls-2" d="M4448.41,1781.44c7.63,3.39,11.44,8.06,11.44,13.97,0,5.08-2.12,9.11-6.36,12.06-4.24,2.98-9.09,5.72-14.61,8.25-5.51,2.55-11.23,4.67-17.14,6.36-5.93,1.71-10.59,2.98-13.97,3.81-20.33,6.79-40.86,13.14-61.6,19.05-20.76,5.94-41.7,12.28-62.85,19.05-32.19,9.34-64.35,18.86-96.53,28.58-32.18,9.75-64.77,18.41-97.79,26.03,2.55,1.72,5.49,5.08,8.89,10.16,14.4,17.78,22.01,37.91,22.88,60.32.83,22.44-.86,44.25-5.08,65.4-5.08,29.64-12.51,58.62-22.24,87-9.73,28.35-20.12,56.07-31.11,83.18-11.87,30.47-24.77,60.74-38.74,90.79-13.97,30.06-29.01,59.48-45.08,88.28-13.56,23.68-27.94,46.97-43.18,69.85-15.23,22.86-32.59,43.6-52.07,62.22-5.06,5.08-11.2,10.16-18.41,15.24-7.18,5.08-14.59,9.53-22.22,13.33-7.61,3.81-15.43,5.91-23.5,6.36-8.03.41-15.86-1.5-23.5-5.72-6.77-4.25-11.63-9.75-14.61-16.5-2.95-6.79-4.63-14.42-5.08-22.88-.41-8.46-.19-16.73.64-24.75.86-8.06,2.14-15.47,3.81-22.24,10.16-55.03,26.68-108.79,49.54-161.28,22.86-52.5,45.3-104.14,67.3-154.94,10.16-22.86,20.1-45.72,29.85-68.57,9.73-22.86,19.26-45.72,28.58-68.57l41.91-95.26c-4.25-3.38-6.56-7.41-6.99-12.06s2.33-8.68,8.27-12.07c2.53-1.69,6.34-3.38,11.42-5.08,6.77-16.92,13.54-34.28,20.33-52.07,6.77-17.78,13.11-35.55,19.05-53.33l-118.11,106.68c-5.08,5.08-12.51,11.23-22.22,18.41-9.75,7.2-19.46,12.69-29.21,16.5-9.72,3.82-19.05,4.67-27.94,2.55-8.89-2.1-15.02-9.94-18.41-23.5-3.38-11.85-2.53-24.77,2.55-38.74,5.06-13.97,9.73-26.03,13.97-36.19,9.32-23.68,23.29-42.74,41.91-57.15,16.92-12.69,35.97-19.69,57.14-20.95,21.15-1.27,39.38,6.15,54.62,22.22,4.22,4.25,4.44,8.47.62,12.69-3.81,4.25-7.84,5.08-12.06,2.55-16.09-9.32-33.02-11.63-50.8-6.99-17.78,4.67-32.61,13.78-44.46,27.3-6.75,6.79-12.06,14.42-15.86,22.86-3.81,8.47-6.99,17.36-9.53,26.68-3.38,7.61-5.49,14.81-6.36,21.58-1.69,6.79-2.1,12.07-1.26,15.88.84,3.81,5.06,4.03,12.69.64,8.47-3.38,16.31-8.46,23.5-15.24,7.18-6.77,14.16-13.13,20.95-19.05l49.54-45.72,99.04-87.62c5.93-5.08,12.07-5.72,18.43-1.91,6.34,3.81,8.66,9.53,6.98,17.14-5.93,24.56-12.92,48.9-20.95,73.03-8.06,24.12-16.74,48.06-26.04,71.74,35.55-6.77,70.69-15.23,105.42-25.39,34.69-10.16,69.4-20.33,104.13-30.49,21.15-6.77,42.12-13.11,62.87-19.05,20.74-5.91,41.27-12.26,61.6-19.05l41.91-15.23c1.67-.84,3.81-1.69,6.34-2.55,2.55-.83,4.65-1.27,6.36-1.27-3.39,1.72-5.08,5.53-5.08,11.44,0-5.08,1.27-9.72,3.81-13.97,1.69,0,2.55-.21,2.55-.64s-.86-.19-2.55.64c3.38-3.38,7.61-3.81,12.69-1.27v-2.53ZM4075.04,2081.15c3.38-12.71,6.13-25.6,8.27-38.74,2.1-13.13,3.17-26.46,3.17-40.01s-3.62-28.35-10.8-44.44c-7.2-16.07-17.57-26.23-31.11-30.47l-15.24,3.81-41.91,95.24-60.96,140.97c-20.31,46.56-40.41,93.34-60.32,140.33-19.88,46.99-36.6,95.03-50.16,144.14-1.69,5.08-3.6,11.44-5.72,19.05-2.1,7.61-3.81,15.66-5.08,24.13-1.27,8.46-1.89,16.3-1.89,23.5s1.71,13.33,5.06,18.41c0,.83.45,1.27,1.27,1.27h2.55c3.39,0,8.47-.86,15.23-2.55,7.63-3.39,14.61-7.84,20.96-13.33,6.36-5.51,12.51-11.23,18.41-17.14,16.95-17.78,32.38-37.05,46.35-57.79,13.97-20.76,26.87-42.13,38.74-64.13,28.77-52.5,53.76-105.42,74.93-158.75,9.3-23.72,18.19-47.63,26.66-71.76,8.46-24.13,16.07-48.47,22.86-73.02l-1.27,1.27Z"/>
    <path class="cls-2" d="M4934.84,1782.71c4.22-.84,8.03-.21,11.42,1.89,3.38,2.12,5.72,4.89,6.99,8.25,1.26,3.39,1.46,6.79.62,10.16-.84,3.39-3.39,6.36-7.61,8.89-21.17,10.16-43.39,18.64-66.68,25.41-23.29,6.79-45.92,13.56-67.94,20.31-22.03,6.79-44.03,13.35-66.04,19.69-22.03,6.36-44.03,12.92-66.04,19.69-14.4,4.25-29.01,6.15-43.8,5.72-14.83-.41-26.89-8.68-36.21-24.77-5.08-10.16-7.61-20.33-7.61-30.47-9.32,12.69-18.41,25.39-27.3,38.1-8.89,12.69-18,24.98-27.3,36.83-5.94,7.61-12.51,16.5-19.69,26.66-7.2,10.16-15.04,19.27-23.5,27.3-8.47,8.06-17.78,14.61-27.94,19.69-10.16,5.08-21.15,6.79-33.02,5.08-12.69-1.69-21.79-6.36-27.3-13.97-5.49-7.63-8.89-16.3-10.16-26.04-1.27-9.72-1.27-19.88,0-30.47,1.27-10.58,3.17-20.52,5.72-29.85,5.93-24.55,13.76-49.09,23.5-73.65,9.73-24.55,22.63-46.99,38.72-67.32,2.55-3.36,5.29-4.86,8.27-4.44,2.95.45,5.7,1.5,8.25,3.19,2.53,1.71,4.22,4.24,5.08,7.61.83,3.39.83,6.79,0,10.16-8.47,18.64-16.73,36.62-24.77,53.97-8.06,17.36-15.02,35.78-20.95,55.26-2.55,9.32-5.08,18.84-7.63,28.56-2.53,9.75-4.22,19.27-5.08,28.58,0,5.08.45,10.39,1.27,15.88.86,5.51,4.67,9.11,11.44,10.8,5.08,1.71,10.15.62,15.23-3.19s9.32-7.39,12.71-10.78c13.52-13.54,26.03-28.15,37.46-43.82,11.42-15.66,23.05-31.11,34.92-46.35,11.85-16.07,23.27-32.38,34.3-48.9,10.99-16.5,21.58-33.21,31.75-50.16,4.22-6.77,10.8-9.3,19.69-7.61,8.89,1.71,13.33,7.2,13.33,16.5,0,5.94-1.27,12.69-3.81,20.33-2.55,7.61-4.67,15.45-6.36,23.5-1.71,8.06-2.76,15.86-3.17,23.5-.45,7.61,1.05,14.4,4.44,20.31,5.91,8.47,13.97,11.23,24.13,8.27,10.15-2.96,19.05-5.29,26.66-6.99l49.52-15.24c16.93-5.08,33.66-10.15,50.18-15.23,16.5-5.08,33.21-10.58,50.16-16.52,16.93-5.91,34.07-12.06,51.43-18.41,17.35-6.34,34.92-11.63,52.71-15.86Z"/>
    <path class="cls-2" d="M5367.88,1787.78c3.38-.83,6.36,0,8.89,2.55,2.55,2.53,2.55,5.51,0,8.89-11.87,16.09-26.66,28.8-44.44,38.1-17.79,9.32-35.16,18.21-52.07,26.66-40.63,18.64-80.44,33.88-119.39,45.72-16.93,5.08-34.28,9.75-52.05,13.97-17.79,4.25-35.57,7.63-53.35,10.16-15.24,1.71-30.7,2.55-46.35,2.55s-30.7-3.38-45.08-10.16c-16.11-7.63-27.32-17.98-33.66-31.13-6.36-13.11-9.53-27.3-9.53-42.53s2.76-30.68,8.25-46.35c5.51-15.66,12.06-29.42,19.69-41.29,9.3-12.69,19.88-24.75,31.75-36.19,11.85-11.42,24.96-20.52,39.38-27.3,11.83-5.08,24.32-6.36,37.46-3.81,13.11,2.53,21.77,11.01,26.03,25.39,3.38,14.42,1.27,27.94-6.36,40.65-7.61,12.69-18.21,23.7-31.75,33.02-13.56,9.32-28.16,16.09-43.8,20.31-15.69,4.25-29.85,5.08-42.55,2.55-2.55,10.15-3.82,20.31-3.82,30.47,0,18.64,6.36,31.33,19.05,38.1,12.71,6.79,27.51,10.16,44.46,10.16,30.47,0,61.15-4.44,92.07-13.33,30.9-8.89,60.32-18.41,88.26-28.58,32.18-11.85,62.23-24.55,90.17-38.1,12.69-6.77,25.82-13.33,39.36-19.69,13.54-6.34,27.51-10.8,41.93-13.33l-2.55,2.53ZM4988.15,1768.74c-6.79,8.46-12.69,16.93-17.78,25.39,12.69-4.22,24.96-8.66,36.83-13.33,11.85-4.65,22.43-12.9,31.76-24.77,2.53-3.38,5.27-7.82,8.25-13.33,2.95-5.49.19-9.09-8.25-10.8-2.55-.83-5.94,0-10.16,2.55-4.25,2.53-7.2,4.67-8.89,6.36-12.71,7.61-23.72,17.36-33.02,29.2l1.26-1.26Z"/>
    <path class="cls-2" d="M5783.16,1781.44c4.22-3.38,8.66-3.38,13.33,0,4.65,3.39,5.29,7.61,1.91,12.69-14.42,21.17-30.28,40.63-47.63,58.43-17.36,17.78-35.78,35.14-55.24,52.05-23.72,21.19-47.63,41.72-71.76,61.6-24.13,19.91-48.89,39.58-74.29,59.07-20.33,15.23-41.08,30.28-62.23,45.08-21.17,14.81-42.75,28.58-64.77,41.27-14.4,8.46-30.06,16.52-46.99,24.13-16.92,7.61-33.85,11.42-50.8,11.42-14.38,0-25.39-3.81-33.02-11.42-7.61-7.61-13.11-16.95-16.5-27.94-3.38-10.99-5.29-22.86-5.72-35.55-.41-12.71.22-24.13,1.91-34.3,5.06-43.18,16.93-85.28,35.55-126.36,18.64-41.06,36.41-81.06,53.35-120.01,18.6-42.34,37.88-84.02,57.77-125.11,19.88-41.05,40.01-82.32,60.32-123.81h-11.42c-26.25,1.71-52.3,4.03-78.12,6.98-25.82,2.98-51.43,6.58-76.82,10.8-22.86,4.25-45.72,8.89-68.57,13.97-22.88,5.08-46.15,8.47-69.85,10.16-4.24,1.71-7.82-.21-10.8-5.72-2.96-5.49-1.05-9.53,5.72-12.06,29.64-11.85,60.96-20.1,93.96-24.77,33.02-4.63,65.21-9.09,96.53-13.33,42.32-5.91,86.35-10.99,132.08-15.24,28.77-55.88,57.55-111.76,86.35-167.64,28.77-55.88,56.71-112.17,83.82-168.91,3.38-6.77,8.89-8.44,16.52-5.08,7.61,3.39,10.15,8.47,7.61,15.24-4.25,13.56-9.53,26.66-15.88,39.38-6.34,12.69-12.92,25.39-19.67,38.1-18.64,38.95-37.46,77.46-56.52,115.56-19.05,38.1-38.33,76.63-57.79,115.56l-7.61,15.24h15.23c16.07-.84,31.95-1.46,47.63-1.91,15.66-.41,31.54-.64,47.63-.64,15.24,0,30.9-.19,46.99-.64,16.07-.41,31.75.64,46.99,3.19,6.77,1.71,13.54,4.44,20.31,8.25,6.77,3.81,11.01,9.96,12.71,18.41,1.69,6.79.64,12.69-3.19,17.78-3.81,5.08-9.09,8.47-15.86,10.16-4.25.86-7.2-.83-8.89-5.08-1.71-4.22-.45-7.18,3.81-8.89,3.38-.83,4.44-2.1,3.17-3.81-1.26-1.69-3.17-3.17-5.72-4.44-2.53-1.27-5.51-2.33-8.89-3.19-3.39-.83-5.51-1.26-6.34-1.26-5.94-.84-11.64-1.27-17.16-1.27h-93.34c-33.02,0-66.02,1.27-99.04,3.81-20.33,41.5-40.44,82.99-60.32,124.47-19.91,41.48-39.6,83.82-59.07,126.98-9.32,20.33-18.21,40.65-26.66,60.96-8.46,20.33-16.93,40.65-25.41,60.96-7.61,19.5-15.02,39.17-22.22,59.07-7.18,19.9-12.47,40.43-15.86,61.58-1.69,10.16-2.74,22.03-3.19,35.57-.41,13.56,1.91,24.98,6.99,34.28,1.71,3.38,3.17,5.29,4.44,5.72,1.26.41,2.76,1.05,4.44,1.91,4.24,1.69,9.11,1.89,14.61.64,5.51-1.27,10.37-2.76,14.61-4.44,18.6-5.94,36.38-13.76,53.33-23.5,16.93-9.73,33.43-19.69,49.54-29.85,21.15-14.38,41.91-28.99,62.22-43.82,20.33-14.8,40.2-30.25,59.69-46.35,35.57-29.63,70.05-60.1,103.51-91.43,33.43-31.32,67.95-61.79,103.51-91.43l5.08-1.27Z"/>
    <path class="cls-2" d="M6212.39,1787.78c3.38-.83,6.36,0,8.89,2.55,2.55,2.53,2.55,5.51,0,8.89-11.87,16.09-26.66,28.8-44.44,38.1-17.79,9.32-35.16,18.21-52.07,26.66-40.63,18.64-80.44,33.88-119.39,45.72-16.93,5.08-34.28,9.75-52.05,13.97-17.79,4.25-35.57,7.63-53.35,10.16-15.24,1.71-30.7,2.55-46.35,2.55s-30.7-3.38-45.08-10.16c-16.11-7.63-27.32-17.98-33.66-31.13-6.36-13.11-9.53-27.3-9.53-42.53s2.76-30.68,8.25-46.35c5.51-15.66,12.06-29.42,19.69-41.29,9.3-12.69,19.88-24.75,31.75-36.19,11.85-11.42,24.96-20.52,39.38-27.3,11.83-5.08,24.32-6.36,37.46-3.81,13.11,2.53,21.77,11.01,26.03,25.39,3.38,14.42,1.27,27.94-6.36,40.65-7.61,12.69-18.21,23.7-31.75,33.02-13.56,9.32-28.16,16.09-43.8,20.31-15.69,4.25-29.85,5.08-42.55,2.55-2.55,10.15-3.82,20.31-3.82,30.47,0,18.64,6.36,31.33,19.05,38.1,12.71,6.79,27.51,10.16,44.46,10.16,30.47,0,61.15-4.44,92.07-13.33,30.9-8.89,60.32-18.41,88.26-28.58,32.18-11.85,62.23-24.55,90.17-38.1,12.69-6.77,25.82-13.33,39.36-19.69,13.54-6.34,27.51-10.8,41.93-13.33l-2.55,2.53ZM5832.67,1768.74c-6.79,8.46-12.69,16.93-17.78,25.39,12.69-4.22,24.96-8.66,36.83-13.33,11.85-4.65,22.43-12.9,31.76-24.77,2.53-3.38,5.27-7.82,8.25-13.33,2.95-5.49.19-9.09-8.25-10.8-2.55-.83-5.94,0-10.16,2.55-4.25,2.53-7.2,4.67-8.89,6.36-12.71,7.61-23.72,17.36-33.02,29.2l1.26-1.26Z"/>
  </g>
  <g>
    <path class="cls-1" d="M3032.71,653.53h380.95v126.98h-241.26v234.92h191.73v126.98h-191.73v273h241.26v126.98h-380.95v-888.87Z"/>
    <path class="cls-1" d="M3619.42,1087.81l-153.65-434.28h147.31l93.96,286.97h2.53l96.51-286.97h132.07l-153.65,434.28,161.26,454.59h-147.29l-101.59-309.83h-2.53l-104.13,309.83h-132.07l161.26-454.59Z"/>
    <path class="cls-1" d="M4122.34,653.53h189.2l144.76,888.87h-139.68l-25.41-176.51v2.55h-158.73l-25.39,173.96h-129.52l144.76-888.87ZM4230.27,447.81h152.37l-135.87,146.04h-105.4l88.9-146.04ZM4274.72,1247.8l-62.22-439.35h-2.55l-60.94,439.35h125.71Z"/>
    <path class="cls-1" d="M4523.64,653.53h199.36l88.9,636.18h2.53l88.88-636.18h199.36v888.87h-132.07v-673.01h-2.53l-101.58,673.01h-116.84l-101.58-673.01h-2.55v673.01h-121.9v-888.87Z"/>
    <path class="cls-1" d="M5206.87,653.53h380.95v126.98h-241.26v234.92h191.73v126.98h-191.73v273h241.26v126.98h-380.95v-888.87Z"/>
    <path class="cls-1" d="M5667.87,653.53h175.25l135.87,532.05h2.53v-532.05h124.43v888.87h-143.49l-167.62-648.87h-2.53v648.87h-124.45v-888.87Z"/>
    <path class="cls-1" d="M6210.14,653.53h380.95v126.98h-241.26v234.92h191.73v126.98h-191.73v273h241.26v126.98h-380.95v-888.87Z"/>
    <path class="cls-1" d="M6649.55,1331.62v-50.8h132.07v60.94c0,63.49,27.92,86.35,72.38,86.35s72.38-22.86,72.38-88.88c0-73.65-27.94-120.63-119.37-200.64-116.82-102.85-154.92-175.23-154.92-276.81,0-139.68,72.38-220.95,208.25-220.95s203.17,81.27,203.17,223.48v36.83h-132.07v-45.72c0-63.49-25.39-87.61-69.83-87.61s-69.85,24.12-69.85,85.08c0,64.75,29.21,111.74,120.65,191.73,116.82,102.85,153.65,173.97,153.65,284.44,0,144.76-73.65,226.03-210.8,226.03s-205.7-81.27-205.7-223.48Z"/>
  </g>
</svg>