<?xml version="1.0" encoding="UTF-8"?>
<svg id="Capa_1" data-name="Capa 1" xmlns="http://www.w3.org/2000/svg" viewBox="0 0 6651.61 2185.77">
  <defs>
    <style>
      .cls-1 {
        opacity: .51;
      }

      .cls-2 {
        fill: #fff;
      }

      .cls-3 {
        fill: #868686;
      }
    </style>
  </defs>
  <g>
    <path class="cls-2" d="M329.59,358.04H5.03v-168.24c262.48,0,355.6-43.13,426.15-189.8h208.84v1509.81h-310.43V358.04Z"/>
    <path class="cls-2" d="M1458.46,358.04h-324.59v-168.24c262.48,0,355.63-43.13,426.19-189.8h208.84v1509.81h-310.43V358.04Z"/>
  </g>
  <g>
    <path class="cls-2" d="M0,2034.47v-34.38h70.76v41.27c0,42.96,14.99,58.43,38.79,58.43s38.79-15.47,38.79-60.15c0-49.88-14.95-81.68-63.94-135.84C21.77,1834.17,1.38,1785.18,1.38,1716.39c0-94.57,38.79-149.55,111.58-149.55s108.86,54.98,108.86,151.27v24.91h-70.76v-30.94c0-42.99-13.61-59.32-37.45-59.32s-37.41,16.33-37.41,57.6c0,43.86,15.64,75.65,64.63,129.81,62.63,69.66,82.34,117.79,82.34,192.58,0,97.98-39.45,153.03-112.93,153.03S0,2130.72,0,2034.47Z"/>
    <path class="cls-2" d="M266.09,1575.42h204.08v85.95h-129.26v159.02h102.73v85.99h-102.73v184.79h129.26v85.99h-204.08v-601.74Z"/>
    <path class="cls-2" d="M513.1,1575.42h106.83l47.64,430.66h1.34l47.64-430.66h106.8v601.74h-70.76v-455.61h-1.38l-54.43,455.61h-62.56l-54.43-455.61h-1.38v455.61h-65.32v-601.74Z"/>
    <path class="cls-2" d="M937.05,1575.42h101.35l77.58,601.74h-74.83l-13.64-119.47v1.72h-85.02l-13.61,117.75h-69.42l77.58-601.74ZM1018.7,1977.73l-33.35-297.44h-1.38l-32.66,297.44h67.38Z"/>
    <path class="cls-2" d="M1152.09,1575.42h93.91l72.79,360.18h1.34v-360.18h66.7v601.74h-76.89l-89.78-439.28h-1.38v439.28h-66.7v-601.74Z"/>
    <path class="cls-2" d="M1500.52,1575.42h101.35l77.58,601.74h-74.83l-13.64-119.47v1.72h-85.02l-13.64,117.75h-69.38l77.58-601.74ZM1582.17,1977.73l-33.35-297.44h-1.38l-32.66,297.44h67.38Z"/>
    <path class="cls-2" d="M1700.61,2034.47v-34.38h70.76v41.27c0,42.96,14.95,58.43,38.79,58.43s38.76-15.47,38.76-60.15c0-49.88-14.99-81.68-63.97-135.84-62.56-69.62-82.99-118.61-82.99-187.41,0-94.57,38.76-149.55,111.58-149.55s108.86,54.98,108.86,151.27v24.91h-70.76v-30.94c0-42.99-13.61-59.32-37.41-59.32s-37.41,16.33-37.41,57.6c0,43.86,15.64,75.65,64.63,129.81,62.56,69.66,82.34,117.79,82.34,192.58,0,97.98-39.48,153.03-112.96,153.03s-110.21-55.05-110.21-151.31Z"/>
  </g>
  <g class="cls-1">
    <path class="cls-3" d="M1260.61,1498.28c-35.55-13.54-69-31.97-100.32-55.26-31.35-23.29-56.71-51.4-76.2-84.44-20.33-34.69-32.38-71.55-36.17-110.48-3.82-38.93-1.1-77.48,8.27-115.58,10.13-41.48,25.56-80.65,46.34-117.48,20.74-36.83,45.1-71.31,73-103.52,27.97-32.14,58.43-61.77,91.47-88.88,33.04-27.08,66.87-52.05,101.59-74.9,72.83-48.3,150.07-87.44,231.78-117.48,81.68-30.04,165.29-52.3,250.8-66.7,102.46-17.78,204.91-26.66,307.37-26.66s204.84,5.51,307.3,16.5c27.08,3.41,54.64,6.99,82.54,10.78,27.97,3.82,56.29,7.85,85.09,12.06,60.12-50.78,121.95-98.8,185.41-144.14,63.53-45.27,129.53-87.81,198.16-127.6,38.93-22.88,79.13-45.51,120.65-67.94,41.48-22.46,83.78-42.75,126.98-60.98,43.17-18.19,87.19-33.83,132.08-46.99,44.85-13.09,90.57-22.22,137.15-27.28,18.64-1.72,38.52-2.76,59.7-3.17,21.15-.45,42.31.83,63.49,3.79,21.15,2.96,41.27,8.27,60.32,15.85,19.05,7.65,36.17,18.26,51.43,31.76,16.09,14.4,27.32,30.49,33.66,48.26s9.3,36.41,8.89,55.88c-.45,19.5-3.82,38.76-10.16,57.77-6.37,19.09-13.78,37.07-22.22,53.98-21.19,40.65-47.2,78.1-78.13,112.41-30.9,34.28-62.42,66.66-94.6,97.15-34.73,32.18-70.07,63.29-106.04,93.36-35.97,30.04-73.03,59.05-111.14,86.95-77.03,57.6-156.2,111.55-237.47,161.92-81.27,50.4-164.26,98.46-248.9,144.14-169.36,92.33-341.64,175.7-516.89,250.21-55.88,23.7-112.38,46.13-169.56,67.28-57.12,21.22-114.93,40.65-173.35,58.43-10.99,37.28-17.98,74.55-20.95,111.76-2.96,37.28.21,74.96,9.54,113.07,11.85,51.61,34.48,97.15,67.94,136.49,33.45,39.38,73.03,71.76,118.75,97.15,43.2,24.56,88.68,42.99,136.53,55.26,47.82,12.26,96.29,18.4,145.42,18.4,30.45,0,60.74-3.17,90.81-9.51,30.04-6.34,59.25-14.81,87.61-25.42,28.35-10.58,56.33-23.05,83.82-37.45,27.49-14.4,53.98-29.66,79.37-45.72,60.98-38.1,118.51-79.99,172.73-125.74,54.16-45.68,106.24-93.98,156.2-144.76,23.7-23.7,46.54-47.82,68.56-72.38,22.05-24.56,43.61-49.54,64.77-74.93,9.34-11.85,18.64-23.5,27.97-34.93,9.3-11.44,18.6-23.05,27.9-34.93,8.47-10.13,17.16-20.33,26.04-30.45,8.89-10.2,16.74-21.15,23.5-33.04,4.24-5.89,9.3-7.2,15.23-3.82,5.93,3.41,6.79,8.06,2.55,13.99-6.75,11.85-13.3,24.12-19.67,36.83-6.34,12.71-12.92,24.98-19.67,36.83-7.65,12.71-15.71,25.01-24.12,36.83-8.47,11.89-17.36,23.74-26.7,35.59-44.03,57.57-91.88,112.17-143.49,163.81-51.68,51.64-105.42,100.32-161.3,146.04-55.05,44.85-112.62,86.37-172.73,124.47-60.12,38.1-124.02,68.59-191.75,91.43-54.22,18.64-108.79,28.15-163.85,28.56-55.05.41-110.03-6.55-165.09-20.95-51.68-14.4-101.42-34.93-149.24-61.6-47.82-26.66-88.68-61.6-122.54-104.76-44.89-55.88-71.55-115.37-80.03-178.42-8.47-63.11-4.62-126.78,11.44-191.13-27.08,7.61-54.4,14.81-81.92,21.57-27.49,6.82-55.22,13.16-83.16,19.09-48.23,10.13-96.32,18.6-144.14,25.36-47.82,6.82-95.88,11.89-144.14,15.26-47.4,3.41-94.81,3.41-142.21,0-47.47-3.38-93.57-13.54-138.46-30.49l-3.82-6.34ZM1256.82,879.79c-27.94,26.25-54.85,56.12-80.65,89.54-25.84,33.45-47.44,68.8-64.77,106.04-17.36,37.28-27.94,76-31.73,116.2-3.82,40.24,2.72,79.82,19.67,118.75,17.78,41.48,43.17,74.72,76.17,99.7,33.04,24.98,69.66,43.82,109.9,56.5,40.17,12.71,81.89,20.33,125.05,22.88,43.2,2.55,84.68,2.55,124.47,0,79.58-5.1,158.3-15.23,236.23-30.49,77.86-15.26,155.37-33.86,232.4-55.88,11.85-38.1,26.46-75.76,43.82-113.03,17.33-37.24,36.38-73.21,57.12-107.93,20.74-34.69,42.34-68.14,64.77-100.35,22.46-32.14,44.23-62.22,65.42-90.16,53.36-71.11,110.07-138.84,170.18-203.19,60.12-64.32,123.19-125.71,189.24-184.14l-57.15-7.65c-49.13-5.89-98.01-10.78-146.69-14.61-48.68-3.79-97.6-6.55-146.69-8.23-93.95-2.55-187.51.86-280.67,10.16-93.15,9.3-184.59,27.49-274.29,54.6-79.58,24.56-156.03,56.53-229.23,95.88-73.24,39.38-140.35,87.85-201.29,145.42h-1.27ZM2807.46,484.82c-20.33,15.26-40.44,30.73-60.32,46.37-19.91,15.67-39.62,31.56-59.05,47.61,60.94,6.82,121.06,9.09,180.31,6.99,59.25-2.1,116.86-14.16,172.73-36.21,3.38-.83,6.34-.41,8.89,1.31,2.55,1.69,4.2,3.79,5.1,6.34.83,2.55,1.03,5.51.62,8.89-.45,3.38-2.34,5.51-5.72,6.34-38.1,16.95-77.48,29.21-118.1,36.83-40.65,7.61-82.13,11.44-124.47,11.44-27.11,0-53.57-1.07-79.37-3.2-25.84-2.07-51.88-4.82-78.1-8.23-75.38,65.21-146.48,133.77-213.39,205.74-58.39,63.49-114.1,129.36-166.98,197.5-52.95,68.14-100.15,140.32-141.63,216.49-13.54,24.6-26.66,50.19-39.34,76.86-12.71,26.66-24.12,53.57-34.31,80.65l26.66-7.65c89.78-28.73,177.39-60.94,262.93-96.5,85.51-35.55,170.6-73.65,255.24-114.31,81.27-38.93,161.3-79.13,240.02-120.65,78.75-41.44,156.65-85.51,233.71-132.05,77.86-47.44,153.86-97.18,227.92-149.24,74.07-52.09,145.45-107.76,214.01-167.02,34.73-29.63,67.94-60.08,99.7-91.43,31.76-31.32,61.15-65.18,88.26-101.59,10.16-14.4,20.95-31.11,32.38-50.19,11.44-19.02,20.53-38.72,27.28-59.05,6.79-20.33,9.54-40.62,8.27-60.94-1.24-20.33-9.51-38.93-24.74-55.88-13.57-14.37-29.87-24.77-48.92-31.11-19.05-6.34-38.31-10.37-57.77-12.06-22.88-2.55-45.92-3.38-69.21-2.55s-46.37,3.38-69.25,7.61c-45.68,6.79-90.36,18.02-133.94,33.66-43.61,15.67-86.61,33.24-128.91,52.71-76.2,35.55-150.07,74.93-221.62,118.1-71.55,43.2-141.21,89.78-208.91,139.73v-1.31Z"/>
    <path class="cls-3" d="M3916.15,1251.89c4.24-.83,8.03-.21,11.4,1.93,3.38,2.1,5.72,4.89,7.03,8.23,1.24,3.41,1.45,6.79.62,10.16-.86,3.38-3.41,6.34-7.65,8.89-21.15,10.16-43.37,18.64-66.66,25.42-23.29,6.75-45.92,13.54-67.94,20.29-22.01,6.79-44.03,13.33-66.04,19.67-22.05,6.37-44.03,12.95-66.04,19.71-14.4,4.27-29.01,6.13-43.79,5.72-14.85-.41-26.91-8.68-36.24-24.77-5.06-10.16-7.58-20.33-7.58-30.49-9.34,12.71-18.43,25.42-27.32,38.1-8.89,12.71-18.02,25.01-27.32,36.86-5.93,7.58-12.47,16.47-19.67,26.66-7.2,10.13-15.05,19.26-23.5,27.28-8.47,8.06-17.78,14.61-27.94,19.71-10.16,5.06-21.15,6.75-33,5.06-12.71-1.69-21.81-6.37-27.32-13.95-5.48-7.65-8.89-16.33-10.16-26.04-1.27-9.72-1.27-19.91,0-30.49,1.27-10.58,3.17-20.5,5.72-29.87,5.93-24.53,13.78-49.06,23.5-73.65,9.72-24.53,22.63-46.99,38.72-67.32,2.55-3.34,5.31-4.82,8.27-4.41,2.96.41,5.72,1.48,8.27,3.17,2.51,1.72,4.2,4.24,5.06,7.61.83,3.41.83,6.79,0,10.16-8.47,18.64-16.71,36.62-24.77,53.95-8.06,17.36-15.02,35.79-20.95,55.26-2.55,9.34-5.1,18.88-7.65,28.59-2.51,9.72-4.2,19.26-5.06,28.56,0,5.06.45,10.37,1.27,15.88.86,5.51,4.69,9.09,11.44,10.82,5.1,1.69,10.13.62,15.23-3.2,5.1-3.82,9.3-7.41,12.71-10.78,13.54-13.54,26.01-28.15,37.45-43.82,11.44-15.64,23.08-31.11,34.93-46.37,11.85-16.05,23.29-32.38,34.31-48.89,10.96-16.5,21.57-33.21,31.73-50.16,4.24-6.79,10.78-9.3,19.67-7.61,8.89,1.72,13.37,7.2,13.37,16.5,0,5.96-1.31,12.71-3.82,20.33-2.55,7.61-4.65,15.47-6.37,23.5-1.69,8.06-2.76,15.88-3.17,23.5-.41,7.61,1.07,14.4,4.48,20.29,5.89,8.47,13.95,11.23,24.12,8.27,10.13-2.96,19.05-5.27,26.66-6.96l49.54-15.26c16.92-5.06,33.62-10.16,50.16-15.23,16.5-5.06,33.21-10.58,50.16-16.5,16.95-5.93,34.07-12.06,51.43-18.43,17.33-6.34,34.9-11.61,52.71-15.88Z"/>
    <path class="cls-3" d="M4372.03,1254.44c5.1,0,7.85,2.55,8.27,7.61s-1.48,8.47-5.72,10.16c-32.18,12.68-66.25,20.74-102.21,24.12-36,3.41-71.76,6.82-107.31,10.2-11.85,1.69-23.94,2.1-36.21,1.24-12.3-.83-21.81-7.17-28.56-19.02-4.27-9.34-5.1-19.5-2.55-30.52,1.69-4.2,3.79-8.89,6.34-13.95s.83-4.24-5.06,2.55c-4.24,4.24-8.06,8.89-11.44,13.95-3.41,5.1-7.2,10.16-11.4,15.23-20.33,27.97-40.44,55.88-60.36,83.85-19.91,27.9-40.86,55.47-62.84,82.54-3.41,4.24-9.13,11.23-17.16,20.95-8.06,9.75-16.71,18.88-26.04,27.28-9.3,8.47-18.81,14.43-28.59,17.81-9.72,3.41-17.54.45-23.5-8.89-4.2-7.61-5.68-17.16-4.41-28.56,1.24-11.44,2.76-21.39,4.41-29.87,1.72-14.37,4.69-28.56,8.89-42.55,4.27-13.99,8.92-28.11,13.99-42.55,5.1-14.37,10.4-28.35,15.88-41.93,5.51-13.5,11.23-27.49,17.12-41.89,4.27-10.99,8.47-22.63,12.75-34.93,4.2-12.26,10.13-23.05,17.78-32.38,4.2-4.2,8.89-4.62,13.95-1.24h3.82c4.2,1.69,5.48,5.06,3.79,10.13-9.3,27.97-19.26,55.67-29.83,83.2-10.61,27.53-20.53,55.22-29.83,83.2-2.55,7.58-4.89,15.23-7.03,22.84-2.07,7.61-4,15.26-5.68,22.84l-3.82,26.7v13.95c20.33-16.92,38.72-36.83,55.26-59.67,16.5-22.88,32.8-44.85,48.89-66.04,9.34-12.71,18.64-25.39,27.94-38.1,9.3-12.71,18.6-25.39,27.94-38.1,6.79-9.3,14.37-20.5,22.84-33.66,8.47-13.09,18.64-21.36,30.52-24.77,7.58-2.51,14.61-1.89,20.95,1.89,6.34,3.82,10.78,9.13,13.3,15.92,2.55,5.93,2.96,13.09,1.31,21.57-.86,5.93-2.34,12.06-4.48,18.4-2.1,6.37,1.07,10.82,9.54,13.37,2.55.83,5.72.83,9.54,0,3.79-.83,6.96-1.31,9.51-1.31l34.31-3.79c29.63-3.38,59.25-6.55,88.88-9.51,29.63-2.96,59.25-5.31,88.88-6.99l-2.55-1.27ZM3871.67,1475.41h1.27-1.27Z"/>
    <path class="cls-3" d="M4735.27,1253.17c6.75-2.51,11.61-.41,14.61,6.37,2.96,6.75,1.45,11.85-4.48,15.23-46.58,26.25-94.39,49.75-143.49,70.49-49.13,20.74-97.8,43.41-146.04,67.94,11.85,22.05,22.6,44.89,32.38,68.56,9.72,23.74,18.81,48.3,27.28,73.69,8.47,24.56,15.88,49.51,22.22,74.93,6.37,25.39,11.61,51.19,15.88,77.44,2.55,20.33,4,41.27,4.44,62.87.41,21.6-4.03,42.13-13.33,61.6-11.02,23.7-27.11,37.45-48.26,41.27-21.19,3.82-43.61,2.31-67.28-4.44-23.74-6.79-46.58-17.16-68.63-31.11-21.98-13.95-39.34-26.91-52.02-38.76-19.5-18.6-36.86-39.96-52.09-64.11-15.23-24.15-26.25-49.33-33-75.55-6.79-26.25-8.06-52.92-3.82-80.03,4.24-27.08,15.67-52.47,34.28-76.17,10.16-13.57,21.81-25.22,34.93-34.93,13.13-9.72,26.87-18.84,41.27-27.32,14.4-7.61,28.39-15.26,41.89-22.84,13.57-7.65,27.53-14.81,41.93-21.6-2.55-4.24-7.41-13.95-14.61-29.21-7.2-15.26-14.61-31.32-22.22-48.26-7.65-16.95-14.81-33-21.6-48.26-6.75-15.23-10.58-25.39-11.4-30.49-2.55-14.37.62-26.22,9.51-35.55,8.89-9.3,20.33-14.81,34.31-16.5,13.95-1.69,28.52.86,43.79,7.61,15.26,6.79,27.11,18.22,35.59,34.31.83,1.69,1.03,4.41.62,8.23-.45,3.82-1.27,7.41-2.55,10.78-1.27,3.41-2.55,6.17-3.79,8.27-1.31,2.14-2.34,1.93-3.2-.62-4.24-11.02-10.99-20.12-20.29-27.32-9.37-7.2-18.43-11.61-27.32-13.33-8.89-1.69-16.3-.41-22.22,3.79-5.93,4.27-7.65,12.3-5.1,24.15.83,4.24,3.82,13.13,8.89,26.66,5.1,13.54,10.82,28.15,17.16,43.82,6.34,15.67,12.26,30.28,17.78,43.82,5.51,13.54,9.09,22.01,10.82,25.39l22.84-11.44c44.89-21.98,89.74-43.58,134.6-64.77,44.89-21.15,91.02-39.76,138.42-55.88l1.31,1.27ZM4519.34,1734.47c-11.85-105.83-43.61-207.39-95.22-304.78-17.78,9.34-35.35,18.43-52.71,27.32-17.36,8.89-34.48,18.84-51.43,29.83-14.37,9.34-27.08,19.91-38.1,31.76-10.99,11.85-19.88,25.39-26.66,40.65-10.16,25.36-13.13,51.19-8.89,77.44,4.24,26.25,13.33,50.99,27.32,74.28,13.95,23.29,31.07,44.65,51.4,64.15,20.33,19.5,41.51,34.73,63.53,45.75,6.75,4.2,15.23,8.41,25.39,12.68,10.16,4.2,20.74,7.41,31.73,9.51,11.02,2.14,21.63,2.76,31.76,1.93,10.16-.86,18.6-4.69,25.42-11.44,11.85-11.85,18.19-27.77,19.02-47.61.83-19.91.41-37.48-1.24-52.71l-1.31,1.24Z"/>
    <path class="cls-3" d="M5224.19,1258.23c4.24,0,7.65,1.93,10.16,5.72,2.55,3.82,2.55,7.44,0,10.82l-1.27,1.24v1.31c-4.24,5.06-8.47,8.89-12.68,11.44-6.82,4.2-13.78,7.58-20.95,10.13-7.23,2.55-14.19,5.1-20.98,7.65-42.34,17.78-85.54,31.73-129.53,41.89-32.21,6.79-65.83,11.23-100.97,13.33-35.14,2.1-68.8-1.48-100.94-10.78-24.6,43.17-55.47,79.99-92.74,110.48-9.3,7.61-19.67,15.47-31.07,23.5-11.44,8.03-23.5,9.96-36.24,5.68-7.58-2.51-13.09-6.34-16.47-11.4-3.38-5.06-5.1-10.78-5.1-17.12s1.07-12.92,3.17-19.71c2.14-6.75,4.03-12.71,5.72-17.78,8.47-22.01,18.4-45.27,29.83-69.87,11.44-24.53,25.63-46.54,42.58-66.01-6.82-8.47-11.44-17.36-13.99-26.7-2.55-14.37-1.48-28.56,3.17-42.55,4.62-13.99,11.23-26.87,19.71-38.72,6.75-9.3,16.26-19.26,28.56-29.83,12.23-10.61,25.18-18.6,38.72-24.15,13.54-5.48,26.7-7.2,39.38-5.06,12.68,2.14,23.29,10.78,31.76,26.04,5.89,11.85,9.09,24.74,9.51,38.72.41,13.99-1.07,28.15-4.44,42.51-3.41,14.43-7.82,28.59-13.33,42.58-5.51,13.95-10.82,26.46-15.88,37.45l-3.82,7.61c16.09,4.27,32.59,6.82,49.54,7.65,35.55,1.69,70.49-.83,104.8-7.65,34.28-6.75,67.94-16.05,100.94-27.9,22.88-6.79,46.16-15.67,69.87-26.7,5.93-2.51,11.61-5.06,17.16-7.61,5.48-2.55,11.61-2.96,18.4-1.27l-2.55,5.06ZM4796.22,1363.65c2.51-3.38,5.06-6.75,7.61-10.13,2.55-3.38,5.1-7.2,7.65-11.44-12.75-5.93-25.84-13.54-39.41-22.88h-3.79c-4.27,6.79-8.47,13.33-12.68,19.71-4.27,6.34-8.47,12.88-12.75,19.67-7.58,13.54-14.78,27.32-21.57,41.27-6.75,13.95-12.68,28.15-17.78,42.55-.83,1.72-2.1,5.1-3.79,10.16-1.72,5.06-3.38,7.61-5.1,7.61,1.72,0,3.58-.83,5.72-2.55,2.14-1.65,4-2.96,5.72-3.79,6.75-4.24,12.88-8.89,18.4-13.99,5.51-5.1,11.23-10.16,17.16-15.23,10.13-9.3,19.88-19.05,29.21-29.21,9.3-10.16,17.78-21.15,25.39-33v1.24ZM4827.95,1312.87c13.57-27.08,23.29-53.74,29.21-79.99,1.72-9.34,3.82-20.33,6.37-33.04,2.51-12.71.41-23.29-6.37-31.76-5.06-5.89-11.23-8.23-18.4-6.99-7.2,1.31-14.4,4.27-21.6,8.89-7.2,4.69-13.95,10.2-20.29,16.54-6.37,6.34-10.82,11.23-13.37,14.61-6.75,8.47-12.68,19.02-17.78,31.76-5.06,12.68-4.65,24.53,1.27,35.55l11.44-7.65c5.89-4.2,11.2-3.79,15.88,1.27,4.62,5.06,5.72,10.16,3.17,15.26l-7.65,11.44c4.27,2.51,8.06,5.06,11.44,7.58,3.38,2.55,7.2,4.69,11.44,6.37l15.23,7.61v2.55Z"/>
  </g>
  <g>
    <path class="cls-2" d="M3171.98,219.76h189.2l144.76,888.89h-139.66l-25.42-176.52v2.55h-158.71l-25.39,173.97h-129.53l144.76-888.89ZM3324.36,814.03l-62.22-439.35h-2.55l-60.94,439.35h125.71Z"/>
    <path class="cls-2" d="M3573.3,219.76h213.32c139.7,0,208.25,77.48,208.25,219.69v449.51c0,142.21-68.56,219.69-208.25,219.69h-213.32V219.76ZM3784.1,981.66c44.44,0,71.11-22.88,71.11-86.37v-462.19c0-63.49-26.66-86.37-71.11-86.37h-71.11v634.92h71.11Z"/>
    <path class="cls-2" d="M4088.88,219.76h199.36l88.92,636.2h2.51l88.88-636.2h199.36v888.89h-132.05V435.63h-2.55l-101.56,673.02h-116.86l-101.56-673.02h-2.55v673.02h-121.92V219.76Z"/>
    <path class="cls-2" d="M4772.14,219.76h139.7v888.89h-139.7V219.76Z"/>
    <path class="cls-2" d="M5125.15,346.74h-146v-126.98h431.73v126.98h-146.04v761.9h-139.7V346.74Z"/>
    <path class="cls-2" d="M5478.23,219.76h139.7v888.89h-139.7V219.76Z"/>
    <path class="cls-2" d="M5722.04,219.76h213.35c139.66,0,208.25,77.48,208.25,219.69v449.51c0,142.21-68.59,219.69-208.25,219.69h-213.35V219.76ZM5932.84,981.66c44.44,0,71.11-22.88,71.11-86.37v-462.19c0-63.49-26.66-86.37-71.11-86.37h-71.11v634.92h71.11Z"/>
    <path class="cls-2" d="M6227.49,897.85v-467.28c0-142.21,74.93-223.48,212.08-223.48s212.04,81.27,212.04,223.48v467.28c0,142.21-74.93,223.48-212.04,223.48s-212.08-81.27-212.08-223.48ZM6511.95,906.73v-485.06c0-63.49-27.94-87.61-72.38-87.61s-72.38,24.12-72.38,87.61v485.06c0,63.49,27.94,87.61,72.38,87.61s72.38-24.12,72.38-87.61Z"/>
  </g>
  <rect class="cls-2" x="1458.19" y="529.7" width="310.65" height="488.45"/>
  <g>
    <path class="cls-2" d="M3349.89,2158.25h-179.42v-345.81h40.51v309.16h138.9v36.66Z"/>
    <path class="cls-2" d="M3597.31,2158.25h-39.55v-39.07h-.96c-8.2,14.95-18.67,26.15-31.35,33.66-12.68,7.44-27.63,11.2-44.85,11.2-29.42,0-51.47-8.78-66.21-26.29-14.68-17.5-22.05-43.82-22.05-78.86v-147.59h39.31v141.32c0,26.04,5,45.58,14.95,58.6,9.96,13.02,24.91,19.53,44.85,19.53s35.17-7.13,47.64-21.32c12.44-14.26,18.67-32.87,18.67-55.84v-142.28h39.55v246.94Z"/>
    <path class="cls-2" d="M3882.11,2158.25h-39.55v-140.83c0-26.22-4.79-45.85-14.37-58.94-9.54-13.13-23.91-19.67-43.03-19.67s-36.14,7.44-49.09,22.29c-12.92,14.88-19.4,33.66-19.4,56.33v140.83h-39.55v-246.94h39.55v41h.96c9.34-15.61,20.74-27.28,34.24-35.1,13.5-7.79,29.11-11.68,46.78-11.68,27.01,0,47.64,8.72,61.98,26.15,14.33,17.47,21.46,42.65,21.46,75.62v150.96Z"/>
    <path class="cls-2" d="M4155.09,2043.7h-174.59c.65,27.84,7.99,49.23,22.08,64.28,14.06,15.02,33.76,22.53,59.19,22.53,11.09,0,22.22-1.65,33.42-4.96,11.16-3.27,22.19-8.54,33.14-15.78l18.33,28.21c-13.99,8.99-27.97,15.61-41.96,19.77-13.99,4.17-29.35,6.27-46.06,6.27-37.31,0-66.39-11.09-87.3-33.28-20.91-22.19-31.45-53.16-31.59-92.84s10.34-71.73,31.49-95.98c21.12-24.25,48.58-36.41,82.34-36.41s57.12,10.51,74.9,31.45c17.74,21.01,26.63,50.06,26.63,87.19v19.53ZM4114.58,2011.39c-.17-22.81-5.68-40.65-16.64-53.4-10.96-12.82-25.98-19.19-45.1-19.19s-34.76,6.55-47.85,19.67c-13.13,13.09-21.12,30.73-24.01,52.92h133.6Z"/>
    <path class="cls-2" d="M4191.75,2139.68l18.81-30.39c10.78,7.1,21.32,12.4,31.59,16.05,10.27,3.58,21.36,5.41,33.28,5.41,16.88,0,29.7-3.13,38.45-9.4,8.78-6.27,13.16-15.67,13.16-28.21,0-10.13-3.89-18.71-11.71-25.67-7.79-7.03-19.98-12.61-36.52-16.78-30.87-7.89-52.02-17.81-63.42-29.8-11.4-11.95-17.12-26.73-17.12-44.23,0-20.26,7.65-37.17,22.91-50.78,15.26-13.57,36.55-20.36,63.91-20.36,13.16,0,25.7,1.69,37.62,5.06s24.05,9.16,36.41,17.36l-17.6,29.9c-11.23-7.1-21.36-12.02-30.25-14.81-8.96-2.82-17.98-4.24-27.15-4.24-15.92,0-28.04,2.93-36.41,8.78-8.37,5.89-12.54,14.37-12.54,25.46s4.31,19.46,12.92,25.08c8.58,5.62,22.46,10.92,41.58,15.92,25.08,6.75,43.86,16.19,56.33,28.35,12.44,12.13,18.67,27.97,18.67,47.61,0,22.81-8.06,40.86-24.25,54.16-16.12,13.23-38.31,19.88-66.42,19.88-15.09,0-29.63-2.1-43.55-6.27-13.88-4.17-26.8-10.23-38.69-18.09Z"/>
    <path class="cls-2" d="M4734.58,2158.25h-39.55v-38.58h-.96c-8.54,14.78-19.02,25.87-31.49,33.28-12.44,7.41-26.94,11.09-43.51,11.09-23.15,0-41.86-6.75-56.19-20.26-14.33-13.5-21.46-31.45-21.46-53.78,0-21.08,7.23-38.52,21.7-52.33,14.47-13.81,34.97-22.67,61.49-26.53l70.42-9.4v-5.55c0-20.74-4.82-35.48-14.47-44.27-9.65-8.75-22.53-13.13-38.58-13.13-12.88,0-25.22,2.41-37.14,7.23-11.92,4.82-23.08,12.23-33.52,22.19l-23.15-23.87c13.81-13.37,28.56-23.15,44.13-29.42,15.57-6.27,32.93-9.4,52.09-9.4,29.9,0,52.43,7.68,67.52,23.05,15.09,15.33,22.67,38.38,22.67,69.07v160.61ZM4695.04,2057.93v-24.6l-59.56,8.2c-18.16,2.58-31.83,7.13-41,13.75-9.16,6.61-13.75,16.95-13.75,31.11s4.31,26.08,12.88,33.86c8.61,7.82,19.09,11.71,31.49,11.71,21.36,0,38.38-6.99,50.99-20.98,12.64-13.99,18.95-31.66,18.95-53.05Z"/>
    <path class="cls-2" d="M5208.69,1812.43l-128.05,345.81h-44.61l-125.4-345.81h45.1l95.74,274.19c1.58,4.34,2.96,9.09,4.1,14.23,1.14,5.13,2.1,10.61,2.89,16.4h.96c.65-4.82,1.65-9.85,3-15.05,1.38-5.24,3.03-10.61,4.96-16.05l97.67-273.71h43.65Z"/>
    <path class="cls-2" d="M5273.32,1852.22c-8.06,0-14.81-2.69-20.26-8.06-5.44-5.41-8.2-12.06-8.2-19.91s2.76-14.5,8.2-19.91c5.44-5.37,12.2-8.06,20.26-8.06s14.81,2.69,20.26,8.06c5.44,5.41,8.2,12.06,8.2,19.91s-2.76,14.5-8.2,19.91c-5.44,5.37-12.2,8.06-20.26,8.06ZM5292.61,2158.25h-39.55v-246.94h39.55v246.94Z"/>
    <path class="cls-2" d="M5571.14,2043.7h-174.59c.65,27.84,7.99,49.23,22.08,64.28,14.06,15.02,33.76,22.53,59.19,22.53,11.09,0,22.22-1.65,33.42-4.96,11.16-3.27,22.19-8.54,33.14-15.78l18.33,28.21c-13.99,8.99-27.97,15.61-41.96,19.77-13.99,4.17-29.35,6.27-46.06,6.27-37.31,0-66.39-11.09-87.3-33.28-20.91-22.19-31.45-53.16-31.59-92.84-.14-39.69,10.34-71.73,31.49-95.98,21.12-24.25,48.58-36.41,82.34-36.41s57.12,10.51,74.9,31.45c17.74,21.01,26.63,50.06,26.63,87.19v19.53ZM5530.63,2011.39c-.17-22.81-5.68-40.65-16.64-53.4-10.96-12.82-25.98-19.19-45.1-19.19s-34.76,6.55-47.85,19.67c-13.13,13.09-21.12,30.73-24.01,52.92h133.6Z"/>
    <path class="cls-2" d="M5752.73,1945.07c-3.03-.96-5.79-1.65-8.2-2.03-2.41-.41-5.44-.62-9.16-.62-20.12,0-35.93,8.54-47.51,25.7-11.58,17.09-17.36,38.52-17.36,64.25v125.88h-39.55v-246.94h39.55v48.95h.96c5.62-17.36,14.23-30.59,25.8-39.69,11.58-9.06,24.94-13.61,40.03-13.61,4.96,0,9.2.24,12.68.72,3.45.48,6.55,1.21,9.27,2.17l-6.51,35.21Z"/>
    <path class="cls-2" d="M6007.63,2158.25h-39.55v-140.83c0-26.22-4.79-45.85-14.37-58.94-9.54-13.13-23.91-19.67-43.03-19.67s-36.14,7.44-49.09,22.29c-12.92,14.88-19.4,33.66-19.4,56.33v140.83h-39.55v-246.94h39.55v41h.96c9.34-15.61,20.74-27.28,34.24-35.1,13.5-7.79,29.11-11.68,46.78-11.68,27.01,0,47.64,8.72,61.98,26.15,14.33,17.47,21.46,42.65,21.46,75.62v150.96Z"/>
    <path class="cls-2" d="M6280.61,2043.7h-174.59c.65,27.84,7.99,49.23,22.08,64.28,14.06,15.02,33.76,22.53,59.19,22.53,11.09,0,22.22-1.65,33.42-4.96,11.16-3.27,22.19-8.54,33.14-15.78l18.33,28.21c-13.99,8.99-27.97,15.61-41.96,19.77-13.99,4.17-29.35,6.27-46.06,6.27-37.31,0-66.39-11.09-87.3-33.28-20.91-22.19-31.45-53.16-31.59-92.84s10.34-71.73,31.49-95.98c21.12-24.25,48.58-36.41,82.34-36.41s57.12,10.51,74.9,31.45c17.74,21.01,26.63,50.06,26.63,87.19v19.53ZM6240.1,2011.39c-.17-22.81-5.68-40.65-16.64-53.4-10.96-12.82-25.98-19.19-45.1-19.19s-34.76,6.55-47.85,19.67c-13.13,13.09-21.12,30.73-24.01,52.92h133.6Z"/>
    <path class="cls-2" d="M6317.27,2139.68l18.81-30.39c10.78,7.1,21.32,12.4,31.59,16.05,10.27,3.58,21.36,5.41,33.28,5.41,16.88,0,29.7-3.13,38.45-9.4,8.78-6.27,13.16-15.67,13.16-28.21,0-10.13-3.89-18.71-11.71-25.67-7.79-7.03-19.98-12.61-36.52-16.78-30.87-7.89-52.02-17.81-63.42-29.8-11.4-11.95-17.12-26.73-17.12-44.23,0-20.26,7.65-37.17,22.91-50.78,15.26-13.57,36.55-20.36,63.91-20.36,13.16,0,25.7,1.69,37.62,5.06,11.92,3.38,24.05,9.16,36.41,17.36l-17.6,29.9c-11.23-7.1-21.36-12.02-30.25-14.81-8.96-2.82-17.98-4.24-27.15-4.24-15.92,0-28.04,2.93-36.41,8.78-8.37,5.89-12.54,14.37-12.54,25.46s4.31,19.46,12.92,25.08c8.58,5.62,22.46,10.92,41.58,15.92,25.08,6.75,43.86,16.19,56.33,28.35,12.44,12.13,18.67,27.97,18.67,47.61,0,22.81-8.06,40.86-24.25,54.16-16.12,13.23-38.31,19.88-66.42,19.88-15.09,0-29.63-2.1-43.55-6.27-13.88-4.17-26.8-10.23-38.69-18.09Z"/>
  </g>
</svg>