<?xml version="1.0" encoding="UTF-8"?>
<svg id="Capa_1" data-name="Capa 1" xmlns="http://www.w3.org/2000/svg" viewBox="0 0 7685 3093">
  <defs>
    <style>
      .cls-1 {
        fill: #fff;
      }

      .cls-2 {
        fill: #1d70b7;
      }
    </style>
  </defs>
  <path class="cls-1" d="M902.38,2087.84v-154.53h292.22v177.01c0,140.48,61.8,191.06,160.15,191.06s160.15-50.57,160.15-191.06v-441.14c0-140.48-61.82-193.87-160.15-193.87s-160.15,53.38-160.15,193.87v16.86h-292.22l56.2-1098.62h814.83v280.99h-539.47l-25.29,469.23h5.62c56.2-92.72,143.3-143.3,266.92-143.3,227.58,0,342.79,160.15,342.79,449.56v443.94c0,314.68-157.34,494.51-460.81,494.51s-460.79-179.82-460.79-494.51Z"/>
  <g>
    <path class="cls-2" d="M3128.48,998.13c-19.41,51.43-41.53,100.96-66.37,148.56-24.9,47.64-51.65,96.72-80.29,147.29-37.93,64.93-78.61,127.3-122.03,187.13-43.42,59.87-89.11,118.43-137.16,175.74-48.05,56.49-97.37,111.26-147.93,164.37-50.59,53.11-104.95,102.84-163.12,149.2-55.63,44.69-114.42,84.72-176.36,120.11-61.98,35.4-127.52,61.51-196.63,78.39l-170.67,394.48c-2.54,5.06-6.14,8.23-10.77,9.48-4.63,1.27-9.26,1.05-13.89-.63-4.66-1.7-8.23-4.85-10.77-9.48-2.5-4.63-2.95-9.47-1.23-14.53,6.72-19.41,13.68-38.38,20.85-56.9,7.13-18.56,14.54-37.52,22.12-56.9,16.84-43.83,34.78-86.83,53.74-128.96,18.97-42.17,38.55-84.3,58.79-126.44-25.28,3.36-50.59,3.16-75.87-.63-25.28-3.79-48.05-13.7-68.29-29.7-24.45-18.54-40.27-40.66-47.4-66.38-7.17-25.71-4.87-52.48,6.96-80.29,2.5-5.88,6.72-7.99,12.62-6.33,5.9,1.71,7.61,5.5,5.08,11.39-5.9,14.34-6.35,28.45-1.27,42.36,5.04,13.91,11.39,26.77,18.97,38.57,9.26,14.34,20.65,25.28,34.13,32.87,13.48,7.58,27.82,12.84,43.01,15.79,15.16,2.95,30.73,4,46.78,3.16,15.98-.84,31.59-2.52,46.78-5.04l22.74-45.53,227.6-527.23c30.32-69.95,60.67-139.71,91.03-209.25,30.35-69.54,57.72-140.55,82.18-213.04,11.8-34.56,22.12-69.11,30.97-103.68,8.85-34.56,16.22-69.54,22.12-104.95,2.54-15.16,4.84-31.38,6.96-48.67,2.09-17.27,2.71-34.33,1.89-51.21-.82-16.86-4.01-33.06-9.47-48.69-5.49-15.57-14.13-29.27-25.93-41.09-20.24-20.22-44.9-31.61-73.95-34.13-29.08-2.54-57.14-1.27-84.1,3.79-32.03,5.9-63.42,14.97-94.18,27.18-30.8,12.23-60.91,25.5-90.41,39.82-63.21,31.19-123.27,66.81-180.17,106.84-56.9,40.06-112.74,82.4-167.55,127.07-52.27,42.99-103.65,88.09-154.24,135.29-50.59,47.21-96.72,97.78-138.46,151.72-41.71,53.95-77.34,111.49-106.84,172.59-29.5,61.12-49.29,126.66-59.4,196.61-9.29,64.07-7.58,127.69,5.04,190.92,12.66,63.21,37.93,121.38,75.87,174.47,34.54,48.05,77.14,87.68,127.69,118.86,50.59,31.18,104.95,49.71,163.12,55.63,5.86.82,8.85,3.98,8.85,9.48s-2.98,8.21-8.85,8.21c-31.21,0-59.88-2.97-85.98-8.85-28.67-6.76-56.25-17.06-82.83-30.97-26.55-13.91-51.21-30.78-73.95-50.59-22.77-19.79-43.83-41.5-63.21-65.11-19.41-23.58-35.84-48.03-49.32-73.33-32.86-60.69-51.82-125.36-56.9-194.08-5.04-68.7.41-135.92,16.43-201.67,16.87-71.63,43.18-138.63,79.02-201.02,35.84-62.37,77.55-120.95,125.19-175.76,47.61-54.77,99.02-106.39,154.24-154.87,55.22-48.46,111.06-94.2,167.55-137.19,59.82-45.51,121.38-88.06,184.59-127.69,63.21-39.61,130.23-72.9,201.02-99.89,25.31-9.26,53.3-17.7,84.1-25.28,30.77-7.6,61.08-10.75,91.03-9.48,29.91,1.25,57.72,8.01,83.45,20.22,25.69,12.23,46.13,33.51,61.32,63.86,15.16,30.34,21.92,62.8,20.24,97.35-1.71,34.57-5.49,67.86-11.39,99.88-6.76,38.79-15.16,76.93-25.28,114.44-10.12,37.5-21.5,74.8-34.16,111.88-26.14,76.72-55.22,151.73-87.22,225.06-32.07,73.33-64.07,147.1-96.1,221.26l-49.32,117.59,98.64-163.1c39.61-64.05,79.85-128.53,120.73-193.44,40.88-64.89,83.86-128.12,128.96-189.65,45.1-61.53,92.74-120.75,142.89-177.65,50.14-56.9,104.3-110.2,162.47-159.95,12.66-10.12,25.69-20.65,39.2-31.61,13.48-10.94,27.37-20.85,41.71-29.72,14.34-8.85,29.5-15.79,45.51-20.85,16.02-5.06,32.89-6.74,50.59-5.06,32.86,3.38,58.17,16.65,75.87,39.82,17.7,23.2,24.42,50.8,20.24,82.83-2.54,17.7-6.76,35.4-12.66,53.09-5.9,17.7-12.24,34.98-18.97,51.84ZM2519.07,1817.44c96.89-96.93,187.1-200.4,270.54-310.4,83.48-110.01,155.54-226.52,216.21-349.6,30.35-61.53,56.9-124.74,79.67-189.65,4.18-12.66,9.26-27.61,15.16-44.9,5.9-17.27,9.05-34.13,9.5-50.57.41-16.43-2.78-30.77-9.5-42.99-6.76-12.21-20.65-20.42-41.71-24.64-16.87-2.54-33.1-1.05-48.7,4.42-15.61,5.49-30.56,12.86-44.86,22.12-14.37,9.28-28.06,19.81-41.12,31.61-13.07,11.82-25.07,22.76-36.01,32.87-26.99,23.61-52.68,47.85-77.14,72.69-24.45,24.88-48.46,50.8-72.06,77.77-47.23,53.09-91.68,108.31-133.38,165.62-41.74,57.33-82.01,115.69-120.76,175.11-38.76,59.44-76.28,119.7-112.53,180.82-36.25,61.12-72.51,122-108.72,182.69-36.25,60.69-71.44,122.02-105.57,183.97-34.13,61.94-67.22,124.54-99.26,187.75,48.05-15.16,95.66-34.97,142.89-59.42,59.82-31.18,115.69-67.43,167.51-108.74,51.86-41.28,101.8-85.54,149.85-132.75v-3.79Z"/>
    <path class="cls-2" d="M3453.42,1819.96c5.86-3.36,11.56-2.73,17.05,1.9,5.49,4.65,6.11,9.91,1.92,15.79-9.29,12.66-19.62,24.03-31.01,34.14-11.35,10.12-22.95,20.24-34.74,30.35-23.63,21.08-47.23,40.88-70.83,59.42-21.92,16.87-45.51,34.35-70.79,52.48-25.28,18.13-51.41,31.4-78.41,39.82-11.8,3.38-23.8,4.65-36.01,3.79-12.24-.82-22.98-5.88-32.24-15.18-9.29-9.26-13.51-19.58-12.66-30.97.82-11.37,2.95-22.53,6.31-33.51,5.08-16.84,11.18-34.56,18.35-53.09,7.13-18.54,15.81-36.24,25.93-53.11l-34.16,18.97c-10.12,6.76-19.79,13.5-29.08,20.24-9.26,6.76-18.52,13.5-27.82,20.22-6.76,5.92-13.44,11.18-20.2,15.81-6.76,4.65-14.75,6.95-24.04,6.95-4.22,0-7.99-1.05-11.39-3.16-3.36-2.09-5.45-5.25-6.31-9.48-2.54-15.18-.82-30.13,5.08-44.88,5.9-14.75,12.62-28.45,20.2-41.09,9.29-16,19.82-31.62,31.62-46.78,11.8-15.18,24.87-28.66,39.2-40.47,9.26-7.58,20.24-14.73,32.86-21.49,12.66-6.74,24.45-5.06,35.4,5.06,6.76,6.76,12.66,15.61,17.7,26.55,5.08,10.98,8.44,22.35,10.12,34.14h3.81c4.22-1.68,8.23-.63,12,3.16,3.81,3.79,4.84,7.8,3.16,12.02-1.68,5.06-3.36,8.44-5.04,10.1,0,3.38-.45,5.92-1.27,7.6-4.22,10.96-9.47,21.3-15.81,30.97-6.31,9.71-12,19.6-17.05,29.72-5.93,10.96-10.98,21.92-15.19,32.87-4.22,10.96-8.44,22.35-12.62,34.13-1.71,5.06-3.4,10.34-5.08,15.81-1.68,5.49-2.95,10.75-3.77,15.81-.86,10.96,2.3,17.49,9.47,19.58,7.13,2.13,15.37,2.33,24.66.63,11.8-2.52,22.74-6.74,32.86-12.64,10.12-5.88,19.79-11.8,29.08-17.7,20.24-12.66,39.82-26.12,58.79-40.47,18.97-14.32,37.73-29.07,56.28-44.24,16.84-14.32,33.27-29.5,49.29-45.51,16.02-16,33.71-29.5,53.13-40.47l1.27-3.79ZM3113.28,1857.89c9.26-5.88,19.17-11.8,29.74-17.7,10.53-5.88,21.26-11.39,32.24-16.45-2.54-8.4-5.69-16.84-9.5-25.28-3.81-8.42-8.23-15.18-13.27-20.24-1.71,0-2.95.45-3.81,1.27-1.68,1.7-3.16,2.74-4.42,3.16-1.23.45-2.74,1.08-4.42,1.9-5.04,3.38-9.91,7.17-14.54,11.37-4.63,4.24-9.05,8.44-13.27,12.66-18.56,18.54-34.98,39.63-49.29,63.21-3.4,5.06-6.96,10.55-10.77,16.45-3.77,5.9-6.93,12.23-9.47,18.97,4.22-4.22,8.44-8.23,12.62-12.02,4.22-3.79,7.61-6.52,10.12-8.21,15.19-10.94,29.91-20.65,44.28-29.08h3.77Z"/>
    <path class="cls-2" d="M4003.38,1817.44c7.61,3.38,11.39,8.03,11.39,13.91,0,5.06-2.09,9.07-6.31,12-4.22,2.97-9.05,5.69-14.54,8.21-5.49,2.54-11.18,4.65-17.08,6.33-5.9,1.7-10.53,2.97-13.89,3.79-20.24,6.76-40.68,13.08-61.32,18.97-20.68,5.92-41.53,12.23-62.59,18.97-32.03,9.29-64.07,18.78-96.1,28.45-32.03,9.71-64.48,18.33-97.34,25.91,2.54,1.71,5.45,5.06,8.85,10.12,14.34,17.7,21.92,37.74,22.77,60.06.82,22.35-.86,44.06-5.08,65.11-5.04,29.51-12.45,58.36-22.12,86.62-9.71,28.23-20.03,55.82-30.97,82.81-11.83,30.34-24.66,60.47-38.59,90.39-13.89,29.92-28.88,59.22-44.86,87.89-13.51,23.58-27.82,46.77-43.01,69.54-15.16,22.76-32.45,43.4-51.82,61.94-5.04,5.06-11.15,10.12-18.35,15.18-7.13,5.06-14.51,9.48-22.12,13.27-7.58,3.79-15.37,5.88-23.39,6.33-7.99.41-15.78-1.49-23.39-5.69-6.72-4.24-11.56-9.71-14.54-16.43-2.92-6.76-4.6-14.35-5.04-22.77-.41-8.42-.21-16.65.62-24.64.86-8.03,2.13-15.4,3.81-22.14,10.12-54.79,26.55-108.31,49.32-160.57,22.74-52.27,45.1-103.68,66.98-154.26,10.12-22.76,20.03-45.51,29.74-68.27,9.67-22.76,19.17-45.51,28.43-68.27l41.74-94.83c-4.25-3.36-6.55-7.37-6.96-12-.45-4.63,2.3-8.64,8.23-12.02,2.5-1.68,6.31-3.36,11.35-5.06,6.76-16.84,13.48-34.13,20.24-51.84,6.76-17.7,13.07-35.4,18.97-53.09l-117.57,106.2c-5.08,5.06-12.45,11.18-22.12,18.33-9.71,7.17-19.38,12.64-29.08,16.43-9.67,3.81-18.97,4.65-27.82,2.54-8.85-2.09-14.95-9.89-18.35-23.39-3.36-11.8-2.5-24.66,2.54-38.57,5.04-13.91,9.71-25.91,13.92-36.03,9.26-23.58,23.19-42.55,41.71-56.9,16.84-12.64,35.81-19.6,56.9-20.85,21.06-1.27,39.2,6.12,54.36,22.12,4.22,4.24,4.42,8.44.62,12.64-3.77,4.24-7.79,5.06-12,2.54-16.02-9.28-32.86-11.58-50.56-6.96-17.7,4.65-32.48,13.72-44.28,27.18-6.72,6.76-12,14.35-15.78,22.76-3.81,8.44-6.96,17.29-9.5,26.56-3.36,7.58-5.45,14.75-6.31,21.49-1.68,6.76-2.09,12.02-1.27,15.81.86,3.79,5.04,4.01,12.66.63,8.44-3.36,16.22-8.42,23.39-15.18,7.13-6.74,14.1-13.07,20.85-18.97l49.32-45.51,98.61-87.24c5.9-5.06,12-5.69,18.35-1.9,6.31,3.79,8.61,9.48,6.93,17.06-5.9,24.45-12.86,48.69-20.85,72.71-8.03,24.01-16.67,47.85-25.93,71.43,35.4-6.74,70.38-15.16,104.95-25.28,34.54-10.12,69.11-20.24,103.68-30.35,21.06-6.74,41.91-13.05,62.59-18.97,20.65-5.88,41.09-12.21,61.32-18.97l41.71-15.16c1.68-.84,3.81-1.68,6.31-2.54,2.54-.82,4.63-1.27,6.35-1.27-3.4,1.71-5.08,5.5-5.08,11.39,0-5.06,1.27-9.67,3.81-13.91,1.68,0,2.54-.21,2.54-.63s-.86-.19-2.54.63c3.36-3.36,7.58-3.79,12.62-1.27v-2.52ZM3631.66,2115.83c3.36-12.66,6.11-25.48,8.23-38.57,2.09-13.07,3.16-26.34,3.16-39.84s-3.6-28.23-10.74-44.24c-7.17-16-17.49-26.12-30.97-30.34l-15.19,3.79-41.71,94.82-60.71,140.35c-20.2,46.35-40.23,92.93-60.06,139.71-19.79,46.78-36.42,94.61-49.94,143.5-1.68,5.06-3.57,11.39-5.69,18.97-2.09,7.58-3.77,15.59-5.04,24.03-1.27,8.42-1.89,16.22-1.89,23.39s1.68,13.27,5.04,18.33c0,.82.45,1.27,1.27,1.27h2.54c3.36,0,8.44-.86,15.16-2.54,7.58-3.38,14.54-7.8,20.85-13.27,6.35-5.49,12.45-11.18,18.35-17.06,16.87-17.7,32.24-36.89,46.13-57.53,13.92-20.66,26.75-41.95,38.59-63.85,28.64-52.27,53.5-104.95,74.6-158.05,9.26-23.61,18.11-47.42,26.55-71.44,8.4-24.03,15.98-48.26,22.74-72.69l-1.27,1.27Z"/>
    <path class="cls-2" d="M4487.67,1818.7c4.18-.84,7.99-.21,11.35,1.89,3.36,2.11,5.69,4.87,6.96,8.21,1.27,3.38,1.47,6.76.62,10.12-.82,3.38-3.36,6.33-7.58,8.85-21.06,10.12-43.18,18.56-66.37,25.29-23.19,6.76-45.72,13.5-67.64,20.22-21.95,6.76-43.83,13.29-65.75,19.6-21.95,6.33-43.83,12.86-65.75,19.6-14.34,4.24-28.88,6.12-43.63,5.69-14.75-.41-26.75-8.64-36.05-24.66-5.04-10.12-7.58-20.24-7.58-30.34-9.26,12.64-18.32,25.28-27.16,37.93-8.85,12.64-17.94,24.87-27.2,36.66-5.9,7.58-12.45,16.43-19.58,26.55-7.17,10.12-14.99,19.19-23.39,27.18-8.44,8.03-17.7,14.54-27.82,19.6s-21.06,6.76-32.89,5.06c-12.62-1.68-21.68-6.33-27.16-13.91-5.49-7.6-8.85-16.22-10.12-25.93-1.27-9.67-1.27-19.79,0-30.34,1.27-10.53,3.16-20.42,5.69-29.72,5.9-24.44,13.68-48.87,23.39-73.33,9.67-24.44,22.53-46.78,38.55-67.02,2.54-3.34,5.25-4.84,8.23-4.42,2.92.45,5.66,1.49,8.2,3.17,2.54,1.7,4.22,4.22,5.08,7.58.82,3.38.82,6.76,0,10.12-8.44,18.56-16.67,36.46-24.66,53.73-8.03,17.29-14.95,35.62-20.85,55.01-2.54,9.28-5.08,18.76-7.61,28.43-2.5,9.71-4.18,19.19-5.04,28.45,0,5.06.45,10.34,1.27,15.81.86,5.49,4.63,9.07,11.39,10.75,5.04,1.7,10.08.62,15.16-3.17,5.04-3.79,9.26-7.36,12.66-10.74,13.44-13.48,25.89-28.02,37.28-43.63,11.39-15.59,22.95-30.97,34.78-46.15,11.8-16,23.15-32.24,34.13-48.69,10.94-16.43,21.5-33.06,31.62-49.94,4.18-6.74,10.74-9.26,19.58-7.58,8.85,1.7,13.27,7.17,13.27,16.43,0,5.92-1.27,12.64-3.77,20.24-2.54,7.58-4.66,15.38-6.35,23.39-1.68,8.03-2.74,15.79-3.16,23.39-.45,7.58,1.06,14.34,4.42,20.22,5.9,8.44,13.92,11.18,24.04,8.23,10.08-2.95,18.97-5.26,26.55-6.96l49.29-15.18c16.87-5.06,33.51-10.1,49.97-15.16,16.43-5.06,33.06-10.53,49.94-16.45,16.84-5.88,33.92-12,51.21-18.33,17.25-6.31,34.74-11.58,52.48-15.79Z"/>
    <path class="cls-2" d="M4918.8,1823.75c3.36-.82,6.31,0,8.85,2.54,2.54,2.52,2.54,5.49,0,8.85-11.83,16.02-26.55,28.67-44.24,37.93-17.73,9.28-35.02,18.13-51.86,26.55-40.44,18.56-80.09,33.73-118.84,45.51-16.87,5.06-34.13,9.71-51.82,13.91-17.73,4.24-35.43,7.6-53.13,10.12-15.16,1.7-30.56,2.54-46.13,2.54s-30.56-3.36-44.9-10.12c-16.02-7.6-27.2-17.9-33.51-30.99-6.31-13.05-9.47-27.18-9.47-42.34s2.74-30.54,8.2-46.15c5.49-15.59,12-29.29,19.62-41.11,9.26-12.64,19.79-24.64,31.59-36.03,11.8-11.37,24.87-20.42,39.2-27.18,11.8-5.06,24.21-6.33,37.32-3.79,13.03,2.52,21.68,10.96,25.89,25.28,3.36,14.35,1.27,27.82-6.31,40.47-7.58,12.64-18.14,23.6-31.62,32.87-13.48,9.28-28.02,16.02-43.59,20.22-15.64,4.24-29.74,5.06-42.36,2.54-2.54,10.1-3.81,20.22-3.81,30.34,0,18.56,6.31,31.19,18.97,37.93,12.66,6.76,27.37,10.12,44.24,10.12,30.35,0,60.88-4.42,91.68-13.27,30.77-8.85,60.06-18.33,87.87-28.45,32.03-11.8,61.94-24.44,89.76-37.93,12.66-6.74,25.72-13.27,39.2-19.6,13.48-6.31,27.37-10.75,41.74-13.27l-2.54,2.52ZM4540.73,1804.8c-6.76,8.42-12.62,16.86-17.7,25.28,12.66-4.2,24.87-8.63,36.66-13.27,11.8-4.63,22.33-12.84,31.62-24.66,2.54-3.36,5.25-7.79,8.23-13.27,2.92-5.47.17-9.05-8.23-10.75-2.54-.82-5.9,0-10.12,2.54-4.22,2.52-7.17,4.65-8.85,6.33-12.66,7.58-23.6,17.29-32.86,29.07l1.23-1.25Z"/>
    <path class="cls-2" d="M5332.22,1817.44c4.22-3.36,8.64-3.36,13.27,0,4.63,3.38,5.28,7.58,1.92,12.64-14.37,21.08-30.15,40.45-47.43,58.17-17.29,17.7-35.6,34.98-54.98,51.82-23.63,21.09-47.43,41.53-71.44,61.32-24.04,19.82-48.67,39.41-73.98,58.8-20.24,15.16-40.88,30.15-61.94,44.88-21.09,14.75-42.56,28.45-64.48,41.09-14.34,8.42-29.94,16.45-46.78,24.03-16.84,7.58-33.71,11.37-50.59,11.37-14.3,0-25.28-3.79-32.86-11.37s-13.07-16.87-16.43-27.82c-3.36-10.94-5.28-22.76-5.69-35.4-.41-12.66.21-24.03,1.89-34.14,5.04-42.99,16.87-84.9,35.4-125.8,18.56-40.88,36.25-80.7,53.13-119.48,18.52-42.15,37.69-83.65,57.52-124.55,19.79-40.87,39.82-81.95,60.06-123.27h-11.39c-26.14,1.7-52.06,4.01-77.75,6.95-25.72,2.97-51.21,6.55-76.48,10.75-22.77,4.24-45.51,8.85-68.29,13.91-22.77,5.06-45.92,8.44-69.52,10.12-4.22,1.7-7.79-.21-10.77-5.69-2.95-5.47-1.03-9.48,5.69-12,29.53-11.8,60.71-20.01,93.56-24.66,32.86-4.61,64.93-9.05,96.1-13.27,42.12-5.88,85.95-10.94,131.5-15.18,28.64-55.63,57.28-111.26,85.95-166.89,28.64-55.63,56.45-111.67,83.45-168.16,3.36-6.74,8.85-8.4,16.46-5.06,7.58,3.38,10.08,8.44,7.58,15.18-4.25,13.5-9.5,26.55-15.81,39.2-6.31,12.64-12.86,25.28-19.58,37.93-18.56,38.77-37.32,77.12-56.28,115.05-18.97,37.93-38.14,76.3-57.52,115.05l-7.58,15.18h15.16c15.98-.84,31.79-1.46,47.4-1.9,15.61-.41,31.42-.63,47.43-.63,15.16,0,30.77-.19,46.78-.63,15.98-.41,31.59.63,46.78,3.17,6.72,1.7,13.48,4.42,20.2,8.21,6.76,3.79,10.98,9.91,12.66,18.33,1.68,6.76.65,12.64-3.16,17.7-3.81,5.06-9.05,8.44-15.81,10.12-4.22.86-7.17-.82-8.85-5.06-1.68-4.2-.45-7.15,3.81-8.85,3.36-.82,4.42-2.09,3.16-3.79-1.27-1.68-3.16-3.16-5.69-4.42-2.54-1.27-5.49-2.32-8.85-3.17-3.4-.82-5.49-1.25-6.31-1.25-5.93-.84-11.59-1.27-17.08-1.27h-92.95c-32.86,0-65.71,1.27-98.61,3.79-20.24,41.31-40.27,82.62-60.06,123.92-19.82,41.29-39.41,83.45-58.79,126.42-9.29,20.24-18.14,40.47-26.55,60.69-8.44,20.24-16.87,40.47-25.31,60.69-7.58,19.41-14.95,39-22.12,58.8-7.13,19.81-12.42,40.25-15.78,61.31-1.68,10.12-2.74,21.93-3.19,35.41-.41,13.5,1.92,24.87,6.96,34.13,1.71,3.36,3.16,5.26,4.42,5.69,1.27.41,2.74,1.05,4.42,1.9,4.22,1.68,9.09,1.89,14.54.63,5.49-1.27,10.32-2.74,14.54-4.42,18.52-5.92,36.22-13.7,53.09-23.39,16.87-9.69,33.3-19.6,49.32-29.72,21.06-14.32,41.74-28.86,61.94-43.63,20.24-14.73,40.03-30.11,59.44-46.15,35.4-29.5,69.73-59.83,103.03-91.03,33.3-31.18,67.67-61.51,103.07-91.03l5.04-1.27Z"/>
    <path class="cls-2" d="M5759.58,1823.75c3.36-.82,6.31,0,8.85,2.54,2.54,2.52,2.54,5.49,0,8.85-11.83,16.02-26.55,28.67-44.24,37.93-17.73,9.28-35.02,18.13-51.86,26.55-40.44,18.56-80.09,33.73-118.84,45.51-16.87,5.06-34.13,9.71-51.82,13.91-17.73,4.24-35.43,7.6-53.13,10.12-15.16,1.7-30.56,2.54-46.13,2.54s-30.56-3.36-44.9-10.12c-16.02-7.6-27.2-17.9-33.51-30.99-6.31-13.05-9.47-27.18-9.47-42.34s2.74-30.54,8.2-46.15c5.49-15.59,12-29.29,19.62-41.11,9.26-12.64,19.79-24.64,31.59-36.03,11.8-11.37,24.87-20.42,39.2-27.18,11.8-5.06,24.21-6.33,37.32-3.79,13.03,2.52,21.68,10.96,25.89,25.28,3.36,14.35,1.27,27.82-6.31,40.47-7.58,12.64-18.14,23.6-31.62,32.87-13.48,9.28-28.02,16.02-43.59,20.22-15.64,4.24-29.74,5.06-42.36,2.54-2.54,10.1-3.81,20.22-3.81,30.34,0,18.56,6.31,31.19,18.97,37.93,12.66,6.76,27.37,10.12,44.24,10.12,30.35,0,60.88-4.42,91.68-13.27,30.77-8.85,60.06-18.33,87.87-28.45,32.03-11.8,61.94-24.44,89.76-37.93,12.66-6.74,25.72-13.27,39.2-19.6,13.48-6.31,27.37-10.75,41.74-13.27l-2.54,2.52ZM5381.51,1804.8c-6.76,8.42-12.62,16.86-17.7,25.28,12.66-4.2,24.87-8.63,36.66-13.27,11.8-4.63,22.33-12.84,31.62-24.66,2.54-3.36,5.25-7.79,8.23-13.27,2.92-5.47.17-9.05-8.23-10.75-2.54-.82-5.9,0-10.12,2.54-4.22,2.52-7.17,4.65-8.85,6.33-12.66,7.58-23.6,17.29-32.86,29.07l1.23-1.25Z"/>
  </g>
  <g>
    <path class="cls-1" d="M2876.36,721.07h379.27v126.42h-240.19v233.88h190.89v126.42h-190.89v271.79h240.19v126.42h-379.27v-884.94Z"/>
    <path class="cls-1" d="M3460.47,1153.44l-152.97-432.36h146.66l93.55,285.7h2.52l96.09-285.7h131.48l-152.97,432.36,160.55,452.58h-146.64l-101.14-308.46h-2.52l-103.67,308.46h-131.48l160.55-452.58Z"/>
    <path class="cls-1" d="M3961.17,721.07h188.36l144.12,884.94h-139.06l-25.29-175.73v2.54h-158.03l-25.28,173.19h-128.94l144.12-884.94ZM4068.62,516.26h151.7l-135.27,145.39h-104.93l88.51-145.39ZM4112.87,1312.71l-61.94-437.4h-2.54l-60.67,437.4h125.15Z"/>
    <path class="cls-1" d="M4360.69,721.07h198.48l88.51,633.36h2.52l88.49-633.36h198.48v884.94h-131.48v-670.03h-2.52l-101.13,670.03h-116.32l-101.13-670.03h-2.54v670.03h-121.36v-884.94Z"/>
    <path class="cls-1" d="M5040.9,721.07h379.27v126.42h-240.19v233.88h190.89v126.42h-190.89v271.79h240.19v126.42h-379.27v-884.94Z"/>
    <path class="cls-1" d="M5499.86,721.07h174.47l135.27,529.7h2.52v-529.7h123.88v884.94h-142.85l-166.88-646h-2.52v646h-123.9v-884.94Z"/>
    <path class="cls-1" d="M6039.73,721.07h379.27v126.42h-240.19v233.88h190.89v126.42h-190.89v271.79h240.19v126.42h-379.27v-884.94Z"/>
    <path class="cls-1" d="M6477.2,1396.16v-50.57h131.48v60.67c0,63.21,27.8,85.97,72.06,85.97s72.06-22.76,72.06-88.49c0-73.33-27.82-120.09-118.84-199.75-116.3-102.4-154.24-174.46-154.24-275.58,0-139.06,72.06-219.97,207.33-219.97s202.27,80.91,202.27,222.49v36.66h-131.48v-45.51c0-63.21-25.28-87.22-69.52-87.22s-69.54,24.01-69.54,84.7c0,64.46,29.08,111.25,120.11,190.89,116.3,102.4,152.97,173.2,152.97,283.18,0,144.12-73.33,225.03-209.87,225.03s-204.79-80.91-204.79-222.49Z"/>
  </g>
</svg>